<mxfile host="65bd71144e">
    <diagram id="VHNFQe2smk09z31DuYg3" name="Page-1">
        <mxGraphModel dx="1614" dy="1213" grid="1" gridSize="10" guides="1" tooltips="1" connect="1" arrows="1" fold="1" page="1" pageScale="1" pageWidth="850" pageHeight="1100" math="0" shadow="0">
            <root>
                <mxCell id="0"/>
                <mxCell id="1" parent="0"/>
                <mxCell id="2" value="" style="whiteSpace=wrap;html=1;aspect=fixed;" parent="1" vertex="1">
                    <mxGeometry x="-70" y="140" width="700" height="700" as="geometry"/>
                </mxCell>
                <mxCell id="3" value="SITE TITLE" style="rounded=0;whiteSpace=wrap;html=1;" parent="1" vertex="1">
                    <mxGeometry x="-70" y="140" width="700" height="140" as="geometry"/>
                </mxCell>
                <mxCell id="14" value="FOOTER" style="rounded=0;whiteSpace=wrap;html=1;" parent="1" vertex="1">
                    <mxGeometry x="-70" y="780" width="700" height="60" as="geometry"/>
                </mxCell>
                <mxCell id="18" value="CUSTOMER INFO FORM&lt;br&gt;&lt;br&gt;STRIPE/PAYMENT API" style="rounded=0;whiteSpace=wrap;html=1;" parent="1" vertex="1">
                    <mxGeometry x="90" y="340" width="410" height="370" as="geometry"/>
                </mxCell>
            </root>
        </mxGraphModel>
    </diagram>
</mxfile>